**ABCDEFGHIJKLMNOPQRSTUVWXYZabcdefghijklmnopqrstuvwxyz**************************
**PARASOLID !"#$%&'()*+,-./:;<=>?@[\]^_`{|}~0123456789**************************
**PART1;
MC=x86;
MC_MODEL=Intel64 Family 6 Model 158 Stepping 10, GenuineIntel;
MC_ID=unknown;
OS=Windows_NT;
OS_RELEASE=unknown;
FRU=CAD Exchanger 3.2.1 (www.cadexchanger.com);
APPL=unknown;
SITE=unknown;
USER=unknown;
FORMAT=text;
GUISE=transmit;
KEY=Resistor_SMD_0805_Resistor_SMD_0805;
FILE=Resistor_SMD_0805_Resistor_SMD_0805.x_t;
DATE=Tue Oct 01 16:19:32 2019;
**PART2;
SCH=SCH_1200000_12006;
USFLD_SIZE=0;
**PART3;
**END_OF_HEADER*****************************************************************
T51 : TRANSMIT FILE created by modeller version 120000017 SCH_1200000_120060 10
 1 3 2 6 0 0 0 0 0 1000 1e-008 0 0 0 1 0 1 8 81 1 2 1 3 1 0 0 0 0 5 80 1 3 0 4 8
017 0 0 0 0 0 0 0 0 TTTTTTTTTTTTTF3 79 13 4 SDL/TYSA_NAME84 3 5 R1270 6 0 1 0 0
 4 1 20 0 7 7 1 T74 20 7 1 0 2 0 0 0 0 0 0 0 0 0 0 0 0 0 0 0 0 0 0 0 11 8 2 0 1
 10 9 1 0 0 0 0 100 9 3 8 0 0 0.9999999999999848 7.642741863815873e-015 1.748455
531469489e-007 1.748455531469491e-007 -4.371138828673789e-008 -0.999999999999983
8 0 0.9999999999999991 -4.371138828673856e-008 5.91387792958642e-008 4.637804687
490643e-008 0 1 3 ?12 10 237 11 13 0 0 0 0 1000 1e-008 8 0 0 1 0 1 1 49 17 23 21
 46 22 20 81 1 11 1 3 10 0 0 0 0 12 84 10 12 SMD_2 080570 13 0 10 0 0 4 2 20 0 1
4 14 1 T74 20 14 2 0 11 15 0 0 0 0 0 0 0 0 0 0 0 0 0 0 0 0 0 0 81 1 15 8 43 16 0
 0 52 0 45 14 16 6 15 1e-008 50 0 18 49 17 -0 0 50 0 47 50 17 7 0 16 51 0 0 +-0.
001 0.0005 -0.000625 0 0 1 1 0 -0 15 18 9 0 19 16 0 17 19 0 18 27 39 20 24 22 0
 262 +18 20 10 0 19 0 25 21 ?10 29 21 11 0 20 26 0 -0.0008125000000000001 0 -0.0
00625 16 22 12 0 ?19 0 30 23 0 0 10 30 23 13 0 22 31 0 0 +-0.001 0 -0.000625 -1
 -0 -0 17 24 0 233 266 262 25 19 22 0 271 -18 25 14 0 24 20 28 26 ?10 29 26 15 0
 25 29 21 -0.00075 0 -0.000625 17 27 0 18 33 19 28 32 30 0 89 +18 28 16 0 27 25
 34 29 ?10 29 29 17 0 28 35 26 -0.0008125000000000001 0.0005 -0.000625 16 30 18
 0 ?27 22 36 31 0 0 10 30 31 19 0 30 37 23 0 +-0.0008125000000000001 0.0005 -0.0
00625 -0 1 -0 17 32 0 361 265 89 20 27 30 0 0 -17 33 0 18 39 27 34 38 36 0 42 -1
8 34 20 0 100 28 56 35 ?10 29 35 21 0 34 57 29 -0.00075 0.0005 -0.000625 16 36 2
2 0 ?38 30 40 37 0 0 10 30 37 23 0 36 41 31 0 +-0.001 0.0005 -0.000625 -1 -0 -0
 17 38 0 83 84 100 28 33 36 0 0 +17 39 0 18 19 33 25 42 40 0 0 +16 40 24 0 ?39 3
6 58 41 0 0 10 30 41 25 0 40 59 37 0 +-0.00075 0.0005 -0.000625 2.12588661271667
6e-016 -1 0 17 42 0 286 103 271 34 39 40 0 0 -80 1 43 0 44 8001 0 0 0 0 3 5 0 0
 FFFFTFTFFFFFFF2 79 15 44 SDL/TYSA_COLOUR83 3 45 0.6666666865348816 0.6980392336
845398 0.7686274647712708 19 46 2 0 10 48 0 47 V13 47 3 0 10 0 0 0 0 46 16 19 48
 4 0 10 0 46 49 S13 49 5 0 10 0 16 0 0 48 0 14 50 26 52 1e-008 79 16 54 49 51 -0
 0 79 16 47 50 51 27 0 50 80 17 0 +-0.0009999999999999996 0.0005 0.000625 0 0 -1
 -1 0 -0 81 1 52 28 43 50 0 0 81 15 53 83 3 53 0.6666666865348816 0.698039233684
5398 0.7686274647712708 15 54 29 0 55 50 0 17 55 0 54 63 75 56 60 58 0 68 -18 56
 30 0 96 34 61 57 ?10 29 57 31 0 56 62 35 -0.0008125 0.0005 0.000625 16 58 32 0
 ?60 40 66 59 0 0 10 30 59 33 0 58 67 41 0 +-0.0009999999999999996 0.0005 0.0006
25 1 0 0 17 60 0 83 100 96 61 55 58 0 0 +18 61 34 0 75 56 64 62 ?10 29 62 35 0 6
1 65 57 -0.00075 0.0005 0.000625 17 63 0 54 69 55 64 68 66 0 0 +18 64 36 0 74 61
 70 65 ?10 29 65 37 0 64 71 62 -0.0008125 0 0.000625 16 66 38 0 ?63 58 72 67 0 0
 10 30 67 39 0 66 73 59 0 +-0.0008125 0.0005 0.000625 0 -1 0 17 68 0 366 99 261
 56 63 66 0 0 -17 69 0 54 75 63 70 74 72 0 78 +18 70 40 0 69 64 85 71 ?10 29 71
 41 0 70 86 65 -0.00075 0 0.000625 16 72 42 0 ?69 66 76 73 0 0 10 30 73 43 0 72
 77 67 0 +-0.0009999999999999996 0 0.000625 1 0 0 17 74 0 233 258 254 64 69 72 0
 261 -17 75 0 54 55 69 61 78 76 0 103 +16 76 44 0 ?75 72 87 77 0 0 10 30 77 45 0
 76 88 73 0 +-0.00075 0.0005 0.000625 -2.125886612716676e-016 1 0 17 78 0 286 25
7 103 70 75 76 0 254 -14 79 46 81 1e-008 104 50 83 49 80 +0 0 104 50 47 50 80 47
 0 79 105 51 0 +0 0.0005 0 0 1 0 0 -0 1 81 1 81 48 43 79 0 0 106 52 82 83 3 82 0
.6666666865348816 0.6980392336845398 0.7686274647712708 15 83 49 0 38 79 0 17 84
 0 83 90 38 85 89 87 0 172 +18 85 50 0 95 70 91 86 ?10 29 86 51 0 85 92 71 -0.00
1 0.0005 -0.0004375 16 87 52 0 ?84 76 93 88 0 0 10 31 88 53 0 87 94 77 0 +-0.000
8125000000000002 0.0005 -0.0004375 0 1 0 0 -0 1 0.0001875 17 89 0 361 32 172 28
 84 87 0 38 -17 90 0 83 96 84 91 95 93 0 99 +18 91 54 0 90 85 110 92 ?10 29 92 5
5 0 91 111 86 -0.0009999999999999996 0.0005 0.0004375000000000001 16 93 56 0 ?90
 87 97 94 0 0 10 30 94 57 0 93 98 88 0 +-0.001 0.0005 -0.000625 1.73472347597680
7e-016 0 1 17 95 0 166 167 179 85 90 93 0 84 -17 96 0 83 60 90 56 99 97 0 55 +16
 97 58 0 ?96 93 101 98 0 0 10 31 98 59 0 97 102 94 0 +-0.0008125000000000001 0.0
005 0.0004375 0 1 0 0 -0 1 0.0001875 17 99 0 366 182 68 91 96 97 0 179 -17 100 0
 83 38 60 34 103 101 0 33 -16 101 60 0 ?103 97 112 102 0 0 10 30 102 61 0 101 11
3 98 0 +-0.00075 0.0005 -0.000625 0 0 1 17 103 0 286 78 42 61 100 101 0 60 +14 1
04 62 106 1e-008 133 79 108 49 105 -0 0 133 79 47 50 105 63 0 104 134 80 0 +0.00
1 0.0005 -0.000625 -1 0 0 0 0 1 81 1 106 64 43 104 0 0 135 81 107 83 3 107 0.666
6666865348816 0.6980392336845398 0.7686274647712708 15 108 65 0 109 104 0 17 109
 0 108 117 129 110 114 112 0 234 +18 110 66 0 109 91 115 111 ?10 29 111 67 0 110
 116 92 0.001 0 -0.0004375 16 112 68 0 ?109 101 120 113 0 0 10 30 113 69 0 112 1
21 102 0 +0.001 0 -0.000625 -0 -0 -1 17 114 0 233 238 234 115 109 112 0 129 -18
 115 70 0 114 110 118 116 ?10 29 116 71 0 115 119 111 0.001 0 0.0004375000000000
001 17 117 0 108 123 109 118 122 120 0 128 +18 118 72 0 117 115 124 119 ?10 29 1
19 73 0 118 125 116 0.001 0.0005 -0.0004375 16 120 74 0 ?117 112 126 121 0 0 10
 30 121 75 0 120 127 113 0 +0.001 0.0005 -0.0004375 -0 1 -0 17 122 0 351 237 220
 110 117 120 0 0 -17 123 0 108 129 117 124 128 126 0 225 -18 124 76 0 132 118 13
9 125 ?10 29 125 77 0 124 140 119 0.001 0.0005 0.0004375000000000001 16 126 78 0
 ?128 120 130 127 0 0 10 30 127 79 0 126 131 121 0 +0.001 0.0005 -0.000625 -0 -0
 -1 17 128 0 216 217 225 118 123 126 0 220 +17 129 0 108 109 123 115 132 130 0 2
41 +16 130 80 0 ?129 126 141 131 0 0 10 30 131 81 0 130 142 127 0 +0.001 0.0005
 0.0004375000000000001 0 -1 0 17 132 0 356 228 241 124 129 130 0 123 -14 133 82
 135 1e-008 162 104 137 49 134 -0 0 162 104 47 50 134 83 0 133 163 105 0 +-0.001
 0.0005 -0.000625 0 0 1 1 0 -0 81 1 135 84 43 133 0 0 164 106 136 83 3 136 0.666
6666865348816 0.6980392336845398 0.7686274647712708 15 137 85 0 138 133 0 17 138
 0 137 146 158 139 143 141 0 217 -18 139 86 0 138 124 144 140 ?10 29 140 87 0 13
9 145 125 0.0008125000000000001 0.0005 -0.000625 16 141 88 0 ?143 130 149 142 0
 0 10 30 142 89 0 141 150 131 0 +-0.001 0.0005 -0.000625 -1 -0 -0 17 143 0 216 2
21 217 144 138 141 0 224 +18 144 90 0 158 139 147 145 ?10 29 145 91 0 144 148 14
0 0.00075 0.0005 -0.000625 17 146 0 137 152 138 147 151 149 0 0 +18 147 92 0 237
 144 153 148 ?10 29 148 93 0 147 154 145 0.0008125000000000001 0 -0.000625 16 14
9 94 0 ?146 141 155 150 0 0 10 30 150 95 0 149 156 142 0 +0.0008125000000000001
 0.0005 -0.000625 0 -1 0 17 151 0 351 220 237 139 146 149 0 0 -17 152 0 137 158
 146 153 157 155 0 161 +18 153 96 0 152 147 168 154 ?10 29 154 97 0 153 169 148
 0.00075 0 -0.000625 16 155 98 0 ?152 149 159 156 0 0 10 30 156 99 0 155 160 150
 0 +-0.001 0 -0.000625 -1 -0 -0 17 157 0 233 234 278 147 152 155 0 146 -17 158 0
 137 138 152 144 161 159 0 143 +16 159 100 0 ?158 155 170 160 0 0 10 30 160 101
 0 159 171 156 0 +0.00075 0.0005 -0.000625 -0 1 0 17 161 0 307 281 224 153 158 1
59 0 278 -14 162 102 164 1e-008 183 133 166 49 163 -0 0 183 133 47 50 163 103 0
 162 184 134 0 +-0.001 0.0005 -0.000625 1 0 -1.734723475976807e-016 -1.734723475
976807e-016 0 -1 81 1 164 104 43 162 0 0 185 135 165 83 3 165 0.6666666865348816
 0.6980392336845398 0.7686274647712708 15 166 105 0 95 162 0 17 167 0 166 173 95
 168 172 170 0 178 +18 168 106 0 265 153 174 169 ?10 29 169 107 0 168 175 154 -0
.001 0 -0.0004375 16 170 108 0 ?167 159 176 171 0 0 10 30 171 109 0 170 177 160
 0 +-0.001 0.0005 -0.0004375 0 -1 0 17 172 0 361 89 265 85 167 170 0 0 -17 173 0
 166 179 167 174 178 176 0 182 +18 174 110 0 173 168 189 175 ?10 29 175 111 0 17
4 190 169 -0.0009999999999999996 0 0.0004375000000000001 16 176 112 0 ?173 170 1
80 177 0 0 10 30 177 113 0 176 181 171 0 +-0.001 0 -0.000625 1.734723475976807e-
016 0 1 17 178 0 233 262 258 168 173 176 0 0 -17 179 0 166 95 173 91 182 180 0 0
 +16 180 114 0 ?179 176 191 181 0 0 10 30 181 115 0 180 192 177 0 +-0.0009999999
999999996 0.0005 0.0004375000000000001 -0 1 -0 17 182 0 366 261 99 174 179 180 0
 258 -14 183 116 185 1e-008 212 162 187 49 184 -0 0 212 162 47 50 184 117 0 183
 213 163 0 +-0.0009999999999999996 0.0005 0.000625 0 0 -1 -1 0 -0 81 1 185 118 4
3 183 0 0 214 164 186 83 3 186 0.6666666865348816 0.6980392336845398 0.768627464
7712708 15 187 119 0 188 183 0 17 188 0 187 196 208 189 193 191 0 0 +18 189 120
 0 201 174 194 190 ?10 29 190 121 0 189 195 175 0.0008125000000000001 0 0.000625
 16 191 122 0 ?188 180 199 192 0 0 10 30 192 123 0 191 200 181 0 +-0.00099999999
99999996 0 0.000625 1 0 0 17 193 0 233 242 238 194 188 191 0 247 -18 194 124 0 2
08 189 197 195 ?10 29 195 125 0 194 198 190 0.00075 0 0.000625 17 196 0 187 202
 188 197 201 199 0 207 +18 197 126 0 196 194 203 198 ?10 29 198 127 0 197 204 19
5 0.0008125000000000001 0.0005 0.000625 16 199 128 0 ?196 191 205 200 0 0 10 30
 200 129 0 199 206 192 0 +0.0008125000000000001 0.0005 0.000625 -0 1 -0 17 201 0
 356 241 228 189 196 199 0 238 -17 202 0 187 208 196 203 207 205 0 211 -18 203 1
30 0 202 197 243 204 ?10 29 204 131 0 203 244 198 0.00075 0.0005 0.000625 16 205
 132 0 ?207 199 209 206 0 0 10 30 206 133 0 205 210 200 0 +-0.000999999999999999
6 0.0005 0.000625 1 0 0 17 207 0 216 225 221 197 202 205 0 228 +17 208 0 187 188
 202 194 211 209 0 193 +16 209 134 0 ?208 205 218 210 0 0 10 30 210 135 0 209 21
9 206 0 +0.00075 0.0005 0.000625 0 -1 0 17 211 0 307 224 247 203 208 209 0 221 -
14 212 136 214 1e-008 229 183 216 49 213 +0 0 229 183 47 50 213 137 0 212 230 18
4 0 +0 0.0005 0 0 1 0 0 -0 1 81 1 214 138 43 212 0 0 231 185 215 83 3 215 0.6666
666865348816 0.6980392336845398 0.7686274647712708 15 216 139 0 128 212 0 17 217
 0 216 143 128 139 220 218 0 151 +16 218 140 0 ?217 209 222 219 0 0 10 31 219 14
1 0 218 223 210 0 +0.0008125000000000002 0.0005 -0.0004375 0 1 0 0 -0 1 0.000187
5 17 220 0 351 122 151 118 217 218 0 0 -17 221 0 216 207 143 203 224 222 0 0 -16
 222 142 0 ?224 218 226 223 0 0 10 30 223 143 0 222 227 219 0 +0.00075 0.0005 -0
.000625 -0 -0 -1 17 224 0 307 161 211 144 221 222 0 0 +17 225 0 216 128 207 124
 228 226 0 0 +16 226 144 0 ?225 222 235 227 0 0 10 31 227 145 0 226 236 223 0 +0
.0008125000000000002 0.0005 0.0004375000000000001 0 1 0 0 -0 1 0.000187500000000
0001 17 228 0 356 201 132 197 225 226 0 0 -14 229 146 231 1e-008 282 212 233 49
 230 -0 0 282 212 47 50 230 147 0 229 283 213 0 +0 0 0 0 1 0 0 -0 1 81 1 231 148
 43 229 0 0 284 214 232 83 3 232 0.6666666865348816 0.6980392336845398 0.7686274
647712708 15 233 149 0 157 229 0 17 234 0 233 114 157 110 237 235 0 122 +16 235
 150 0 ?234 226 239 236 0 0 10 31 236 151 0 235 240 227 0 +0.0008125000000000002
 0 -0.0004375 -0 -1 -0 0 0 1 0.0001875 17 237 0 351 151 122 147 234 235 0 157 -1
7 238 0 233 193 114 189 241 239 0 188 +16 239 152 0 ?238 235 245 240 0 0 10 31 2
40 153 0 239 246 236 0 +0.0008125000000000002 0 0.0004375000000000001 -0 -1 -0 0
 0 1 0.0001875000000000001 17 241 0 356 132 201 115 238 239 0 0 -17 242 0 233 24
8 193 243 247 245 0 0 +18 243 154 0 320 203 249 244 ?10 29 244 155 0 243 250 204
 0.00075 0 0.000635 16 245 156 0 ?242 239 251 246 0 0 10 30 246 157 0 245 252 24
0 0 +0.00075 0 -0.000635 0 0 1 17 247 0 307 211 320 194 242 245 0 0 -17 248 0 23
3 254 242 249 253 251 0 257 -18 249 158 0 248 243 267 250 ?10 29 250 159 0 249 2
68 244 -0.00075 0 0.000635 16 251 160 0 ?253 245 255 252 0 0 10 30 252 161 0 251
 256 246 0 +-0.00075 0 0.000635 1 0 0 17 253 0 341 323 292 243 248 251 0 242 +17
 254 0 233 74 248 70 257 255 0 0 -16 255 162 0 ?257 251 259 256 0 0 10 30 256 16
3 0 255 260 252 0 +-0.00075 0 -0.000635 0 0 1 17 257 0 286 287 78 249 254 255 0
 292 +17 258 0 233 178 74 174 261 259 0 0 +16 259 164 0 ?258 255 263 260 0 0 10
 31 260 165 0 259 264 256 0 +-0.0008125000000000001 0 0.0004375 -0 -1 -0 0 0 1 0
.0001875 17 261 0 366 68 182 64 258 259 0 63 -17 262 0 233 24 178 20 265 263 0 3
2 +16 263 166 0 ?262 259 269 264 0 0 10 31 264 167 0 263 270 260 0 +-0.000812500
0000000002 0 -0.0004375 -0 -1 -0 1.156482317317871e-015 -0 1 0.0001875 17 265 0
 361 172 32 168 262 263 0 167 -17 266 0 233 272 24 267 271 269 0 277 -18 267 168
 0 299 249 273 268 ?10 29 268 169 0 267 274 250 -0.00075 0 -0.000635 16 269 170
 0 ?271 263 275 270 0 0 10 30 270 171 0 269 276 264 0 +-0.00075 0 -0.000635 0 0
 1 17 271 0 286 42 299 25 266 269 0 39 +17 272 0 233 278 266 273 277 275 0 281 +
18 273 172 0 313 267 288 274 ?10 29 274 173 0 273 289 268 0.00075 0 -0.000635 16
 275 174 0 ?272 269 279 276 0 0 10 30 276 175 0 275 280 270 0 +-0.00075 0 -0.000
635 1 0 0 17 277 0 346 302 313 267 272 275 0 0 -17 278 0 233 157 272 153 281 279
 0 0 +16 279 176 0 ?278 275 290 280 0 0 10 30 280 177 0 279 291 276 0 +0.00075 0
 -0.000635 0 0 1 17 281 0 307 308 161 273 278 279 0 0 -14 282 178 284 1e-008 303
 229 286 49 283 -0 0 303 229 47 50 283 179 0 282 304 230 0 +-0.00075 0.00051 -0.
000625 1 0 0 0 0 -1 81 1 284 180 43 282 0 0 305 231 285 83 3 285 0.6431372761726
379 0.615686297416687 0.6000000238418579 15 286 181 0 103 282 0 17 287 0 286 293
 257 288 292 290 0 332 -18 288 182 0 287 273 294 289 ?10 29 289 183 0 288 295 27
4 -0.00075 0.00051 0.000635 16 290 184 0 ?292 279 296 291 0 0 10 30 291 185 0 29
0 297 280 0 +-0.00075 0.00051 0.000635 2.125886612716676e-016 -1 0 17 292 0 341
 253 332 249 287 290 0 0 +17 293 0 286 299 287 294 298 296 0 0 -18 294 186 0 302
 288 309 295 ?10 29 295 187 0 294 310 289 -0.00075 0.00051 -0.000635 16 296 188
 0 ?298 290 300 297 0 0 10 30 297 189 0 296 301 291 0 +-0.00075 0.00051 -0.00062
5 0 0 1 17 298 0 328 329 333 288 293 296 0 0 +17 299 0 286 271 293 267 302 300 0
 266 +16 300 190 0 ?299 296 311 301 0 0 10 30 301 191 0 300 312 297 0 +-0.00075
 0.00051 -0.000635 2.125886612716676e-016 -1 0 17 302 0 346 336 277 294 299 300
 0 333 -14 303 192 305 1e-008 324 282 307 49 304 -0 0 324 282 47 50 304 193 0 30
3 325 283 0 +0.00075 0.00051 -0.000625 -1 0 0 0 0 1 81 1 305 194 43 303 0 0 326
 284 306 83 3 306 0.6431372761726379 0.615686297416687 0.6000000238418579 15 307
 195 0 224 303 0 17 308 0 307 314 281 309 313 311 0 319 +18 309 196 0 308 294 31
5 310 ?10 29 310 197 0 309 316 295 0.00075 0.00051 -0.000635 16 311 198 0 ?308 3
00 317 312 0 0 10 30 312 199 0 311 318 301 0 +0.00075 0.00051 -0.000635 -0 1 -0
 17 313 0 346 277 336 273 308 311 0 272 -17 314 0 307 320 308 315 319 317 0 323
 -18 315 200 0 314 309 0 316 ?10 29 316 201 0 315 0 310 0.00075 0.00051 0.000635
 16 317 202 0 ?319 311 321 318 0 0 10 30 318 203 0 317 322 312 0 +0.00075 0.0005
1 -0.000625 -0 -0 -1 17 319 0 328 333 329 309 314 317 0 336 +17 320 0 307 247 31
4 243 323 321 0 253 -16 321 204 0 ?323 317 330 322 0 0 10 30 322 205 0 321 331 3
18 0 +0.00075 0.00051 0.000635 -0 1 -0 17 323 0 341 332 253 315 320 321 0 329 +1
4 324 206 326 1e-008 337 303 328 49 325 +0 0 337 303 47 50 325 207 0 324 338 304
 0 +0 0.00051 0 0 1 0 0 -0 1 81 1 326 208 43 324 0 0 339 305 327 83 3 327 0.6431
372761726379 0.615686297416687 0.6000000238418579 15 328 209 0 298 324 0 17 329
 0 328 319 298 315 332 330 0 0 -16 330 210 0 ?332 321 334 331 0 0 10 30 331 211
 0 330 335 322 0 +-0.00075 0.00051 0.000635 -1 -0 -0 17 332 0 341 292 323 288 32
9 330 0 298 +17 333 0 328 298 319 294 336 334 0 293 +16 334 212 0 ?333 330 0 335
 0 0 10 30 335 213 0 334 0 331 0 +-0.00075 0.00051 -0.000635 -1 -0 -0 17 336 0 3
46 313 302 309 333 334 0 0 -14 337 214 339 1e-008 342 324 341 49 338 +0 0 342 32
4 47 50 338 215 0 337 343 325 0 +0 0 0.000635 -0 0 1 1 0 0 81 1 339 216 43 337 0
 0 344 326 340 83 3 340 0.6431372761726379 0.615686297416687 0.6000000238418579
 15 341 217 0 292 337 0 14 342 218 344 1e-008 347 337 346 49 343 -0 0 347 337 47
 50 343 219 0 342 348 338 0 +0 0 -0.000635 -0 0 1 1 0 0 81 1 344 220 43 342 0 0
 349 339 345 83 3 345 0.6431372761726379 0.615686297416687 0.6000000238418579 15
 346 221 0 302 342 0 14 347 222 349 1e-008 352 342 351 49 348 +0 0 352 342 47 51
 348 223 0 347 353 343 0 +0.0008125000000000002 0.0005 -0.0004375 0 -1 0 0.00018
75 0 0 -1 81 1 349 224 43 347 0 0 354 344 350 83 3 350 0.6666666865348816 0.6980
392336845398 0.7686274647712708 15 351 225 0 220 347 0 14 352 226 354 1e-008 357
 347 356 49 353 +0 0 357 347 47 51 353 227 0 352 358 348 0 +0.000812500000000000
2 0.0005 0.0004375000000000001 0 -1 0 0.0001875 0 0 -1 81 1 354 228 43 352 0 0 3
59 349 355 83 3 355 0.6666666865348816 0.6980392336845398 0.7686274647712708 15
 356 229 0 228 352 0 14 357 230 359 1e-008 362 352 361 49 358 +0 0 362 352 47 51
 358 231 0 357 363 353 0 +-0.0008125000000000002 0.0005 -0.0004375 0 -1 0 0.0001
875 0 0 -1 81 1 359 232 43 357 0 0 364 354 360 83 3 360 0.6666666865348816 0.698
0392336845398 0.7686274647712708 15 361 233 0 89 357 0 14 362 234 364 1e-008 0 3
57 366 49 363 +0 0 0 357 47 51 363 235 0 362 0 358 0 +-0.0008125000000000001 0.0
005 0.0004375 0 -1 0 0.0001875 0 0 -1 81 1 364 236 43 362 0 0 0 359 365 83 3 365
 0.6666666865348816 0.6980392336845398 0.7686274647712708 15 366 237 0 99 362 0
 1 0 
