**ABCDEFGHIJKLMNOPQRSTUVWXYZabcdefghijklmnopqrstuvwxyz**************************
**PARASOLID !"#$%&'()*+,-./:;<=>?@[\]^_`{|}~0123456789**************************
**PART1;
MC=x86;
MC_MODEL=Intel64 Family 6 Model 158 Stepping 10, GenuineIntel;
MC_ID=unknown;
OS=Windows_NT;
OS_RELEASE=unknown;
FRU=CAD Exchanger 3.2.1 (www.cadexchanger.com);
APPL=unknown;
SITE=unknown;
USER=unknown;
FORMAT=text;
GUISE=transmit;
KEY=TEMT6000_TEMT6000;
FILE=TEMT6000_TEMT6000.x_t;
DATE=Tue Oct 01 16:19:32 2019;
**PART2;
SCH=SCH_1200000_12006;
USFLD_SIZE=0;
**PART3;
**END_OF_HEADER*****************************************************************
T51 : TRANSMIT FILE created by modeller version 120000017 SCH_1200000_120060 10
 1 3 2 6 0 0 0 0 0 1000 1e-008 0 0 0 1 0 1 8 81 1 2 1 3 1 0 0 0 0 5 80 1 3 0 4 8
017 0 0 0 0 0 0 0 0 TTTTTTTTTTTTTF3 79 13 4 SDL/TYSA_NAME84 3 5 Q1270 6 0 1 0 0
 4 1 20 0 7 7 1 T74 20 7 1 0 2 0 0 0 0 0 0 0 0 0 0 0 0 0 0 0 0 0 0 0 11 8 2 0 1
 10 9 1 0 0 0 0 100 9 3 8 0 0 0.9999993954868643 4.806317083689428e-011 0.001099
557140845692 0.001099557140845693 -4.371136341773905e-008 -0.9999993954868633 7.
276258794414371e-027 0.9999999999999991 -4.371138984184839e-008 8.21769238292802
2e-008 7.893441406281454e-008 0.0005199989676475525 1 3 ?12 10 517 11 13 0 0 0 0
 1000 1e-008 8 0 0 1 0 1 1 49 17 23 21 46 22 20 81 1 11 1 3 10 0 0 0 0 12 84 8 1
2 TEMT600070 13 0 10 0 0 4 2 20 0 14 14 1 T74 20 14 2 0 11 15 0 0 0 0 0 0 0 0 0
 0 0 0 0 0 0 0 0 0 81 1 15 8 43 16 0 0 52 0 45 14 16 6 15 1e-008 50 0 18 49 17 +
0 0 50 0 47 50 17 7 0 16 51 0 0 +-0.002 -7.500000000000008e-005 -0.001 0 1 0 0 -
0 1 15 18 9 0 19 16 0 17 19 0 18 27 39 20 24 22 0 307 -18 20 10 0 19 0 25 21 ?10
 29 21 11 0 20 26 0 -0.0012 -7.500000000000006e-005 0.0002000000000000001 16 22
 12 0 ?24 0 30 23 0 0 10 30 23 13 0 22 31 0 0 +-0.00199 -7.500000000000001e-005
 0.0002 -1 -0 -0 17 24 0 501 257 514 25 19 22 0 254 +18 25 14 0 24 20 28 26 ?10
 29 26 15 0 25 29 21 -0.002 -7.500000000000001e-005 0.0002 17 27 0 18 33 19 28 3
2 30 0 38 -18 28 16 0 300 25 34 29 ?10 29 29 17 0 28 35 26 -0.0012 -7.5000000000
00006e-005 -0.0002000000000000001 16 30 18 0 ?32 22 36 31 0 0 10 30 31 19 0 30 3
7 23 0 +-0.0012 -7.500000000000006e-005 -0.001 0 0 1 17 32 0 283 304 300 20 27 3
0 0 514 +17 33 0 18 39 27 34 38 36 0 42 +18 34 20 0 33 28 56 35 ?10 29 35 21 0 3
4 57 29 -0.002 -7.500000000000006e-005 -0.0002 16 36 22 0 ?33 30 40 37 0 0 10 30
 37 23 0 36 41 31 0 +-0.00199 -7.500000000000006e-005 -0.0002 -1 -0 -0 17 38 0 5
46 547 247 28 33 36 0 552 -17 39 0 18 19 33 25 42 40 0 0 +16 40 24 0 ?39 36 58 4
1 0 0 10 30 41 25 0 40 59 37 0 +-0.002 -7.500000000000006e-005 -0.001 0 0 1 17 4
2 0 241 242 254 34 39 40 0 247 -80 1 43 0 44 8001 0 0 0 0 3 5 0 0 FFFFTFTFFFFFFF
2 79 15 44 SDL/TYSA_COLOUR83 3 45 0.6431372761726379 0.615686297416687 0.6000000
238418579 19 46 2 0 10 48 0 47 V13 47 3 0 10 0 0 0 0 46 16 19 48 4 0 10 0 46 49
 S13 49 5 0 10 0 16 0 0 48 0 14 50 26 52 1e-008 79 16 54 49 51 +0 0 79 16 47 50
 51 27 0 50 80 17 0 +-0.002 -7.500000000000008e-005 -0.001 0 1 0 0 -0 1 81 1 52
 28 43 50 0 0 81 15 53 83 3 53 0.6431372761726379 0.615686297416687 0.6000000238
418579 15 54 29 0 55 50 0 17 55 0 54 63 75 56 60 58 0 68 -18 56 30 0 303 34 61 5
7 ?10 29 57 31 0 56 62 35 -0.0012 -7.500000000000006e-005 -0.0008 16 58 32 0 ?60
 40 66 59 0 0 10 30 59 33 0 58 67 41 0 +-0.00199 -7.500000000000006e-005 -0.0008
 -1 -0 -0 17 60 0 531 195 538 61 55 58 0 75 +18 61 34 0 60 56 64 62 ?10 29 62 35
 0 61 65 57 -0.002 -7.500000000000006e-005 -0.0008 17 63 0 54 69 55 64 68 66 0 7
4 -18 64 36 0 63 61 70 65 ?10 29 65 37 0 64 71 62 -0.0012 -7.500000000000006e-00
5 -0.001 16 66 38 0 ?68 58 72 67 0 0 10 30 67 39 0 66 73 59 0 +-0.0012 -7.500000
000000006e-005 -0.001 0 0 1 17 68 0 283 300 296 56 63 66 0 538 +17 69 0 54 75 63
 70 74 72 0 78 +18 70 40 0 69 64 85 71 ?10 29 71 41 0 70 86 65 -0.002 -7.5000000
00000006e-005 -0.001 16 72 42 0 ?69 66 76 73 0 0 10 30 73 43 0 72 77 67 0 +-0.00
2 -7.500000000000006e-005 -0.001 -1 -0 -0 17 74 0 470 299 203 64 69 72 0 296 -17
 75 0 54 55 69 61 78 76 0 192 +16 76 44 0 ?75 72 87 77 0 0 10 30 77 45 0 76 88 7
3 0 +-0.002 -7.500000000000006e-005 -0.001 0 0 1 17 78 0 191 198 192 70 75 76 0
 203 -14 79 46 81 1e-008 108 50 83 49 80 +0 0 108 50 47 50 80 47 0 79 109 51 0 +
0.0012 -7.499999999999998e-005 -0.001 0 1 0 0 -0 1 81 1 81 48 43 79 0 0 110 52 8
2 83 3 82 0.6431372761726379 0.615686297416687 0.6000000238418579 15 83 49 0 84
 79 0 17 84 0 83 92 104 85 89 87 0 368 -18 85 50 0 568 70 90 86 ?10 29 86 51 0 8
5 91 71 0.0012 -7.500000000000006e-005 0.0003 16 87 52 0 ?89 76 95 88 0 0 10 30
 88 53 0 87 96 77 0 +0.00199 -7.499999999999998e-005 0.0003 1 -0 -0 17 89 0 561
 174 568 90 84 87 0 0 +18 90 54 0 171 85 93 91 ?10 29 91 55 0 90 94 86 0.002 -7.
499999999999998e-005 0.0003 17 92 0 83 98 84 93 97 95 0 359 +18 93 56 0 92 90 99
 94 ?10 29 94 57 0 93 100 91 0.0012 -7.499999999999998e-005 0.001 16 95 58 0 ?92
 87 101 96 0 0 10 30 96 59 0 95 102 88 0 +0.0012 -7.499999999999998e-005 -0.001
 0 0 1 17 97 0 358 363 359 85 92 95 0 84 -17 98 0 83 104 92 99 103 101 0 182 -18
 99 60 0 107 93 114 100 ?10 29 100 61 0 99 115 94 0.002 -7.499999999999998e-005
 0.001 16 101 62 0 ?103 95 105 102 0 0 10 30 102 63 0 101 106 96 0 +0.0012 -7.49
9999999999998e-005 0.001 -1 -0 -0 17 103 0 475 362 182 93 98 101 0 0 +17 104 0 8
3 84 98 90 107 105 0 89 -16 105 64 0 ?107 101 116 106 0 0 10 30 106 65 0 105 117
 102 0 +0.002 -7.499999999999998e-005 -0.001 0 0 1 17 107 0 170 177 171 99 104 1
05 0 98 +14 108 66 110 1e-008 137 79 112 49 109 +0 0 137 79 47 50 109 67 0 108 1
38 80 0 +-0.00199 0 0 -1 0 0 0 0 1 81 1 110 68 43 108 0 0 139 81 111 83 3 111 0.
6470588445663452 0.5176470875740051 0 15 112 69 0 113 108 0 17 113 0 112 121 133
 114 118 116 0 553 +18 114 70 0 126 99 119 115 ?10 29 115 71 0 114 120 100 -0.00
199 -7.600000000000006e-005 -0.0002 16 116 72 0 ?113 105 124 117 0 0 10 30 117 7
3 0 116 125 106 0 +-0.00199 -7.500000000000006e-005 -0.0002 -0 1 -1.204669080539
449e-016 17 118 0 546 453 553 119 113 116 0 0 -18 119 74 0 133 114 122 120 ?10 2
9 120 75 0 119 123 115 -0.00199 -0.0005250000000000001 -0.0002 17 121 0 112 127
 113 122 126 124 0 132 -18 122 76 0 121 119 128 123 ?10 29 123 77 0 122 129 120
 -0.00199 -7.600000000000006e-005 -0.0008 16 124 78 0 ?126 116 130 125 0 0 10 30
 125 79 0 124 131 117 0 +-0.00199 -7.600000000000006e-005 -0.0008 0 0 1 17 126 0
 769 556 537 114 121 124 0 113 +17 127 0 112 133 121 128 132 130 0 136 +18 128 8
0 0 127 122 143 129 ?10 29 129 81 0 128 144 123 -0.00199 -0.0005250000000000001
 -0.0008 16 130 82 0 ?127 124 134 131 0 0 10 30 131 83 0 130 135 125 0 +-0.00199
 -7.500000000000006e-005 -0.0008 0 -1 0 17 132 0 531 532 457 122 127 130 0 537 -
17 133 0 112 113 127 119 136 134 0 450 +16 134 84 0 ?133 130 145 135 0 0 10 30 1
35 85 0 134 146 131 0 +-0.00199 -0.0005250000000000001 -0.0008 0 0 1 17 136 0 42
5 454 450 128 133 134 0 457 -14 137 86 139 1e-008 166 108 141 49 138 +0 0 166 10
8 47 50 138 87 0 137 167 109 0 +0.00199 0 0 1 0 0 0 0 -1 81 1 139 88 43 137 0 0
 168 110 140 83 3 140 0.6470588445663452 0.5176470875740051 0 15 141 89 0 142 13
7 0 17 142 0 141 150 162 143 147 145 0 155 +18 143 90 0 583 128 148 144 ?10 29 1
44 91 0 143 149 129 0.00199 -7.600000000000006e-005 -0.0003 16 145 92 0 ?142 134
 153 146 0 0 10 30 146 93 0 145 154 135 0 +0.00199 -7.499999999999998e-005 -0.00
03 -0 1 1.204669080539449e-016 17 147 0 576 465 583 148 142 145 0 162 -18 148 94
 0 462 143 151 149 ?10 29 149 95 0 148 152 144 0.00199 -0.0005250000000000001 -0
.0003 17 150 0 141 156 142 151 155 153 0 161 -18 151 96 0 567 148 157 152 ?10 29
 152 97 0 151 158 149 0.00199 -7.600000000000006e-005 0.0003 16 153 98 0 ?155 14
5 159 154 0 0 10 30 154 99 0 153 160 146 0 +0.00199 -7.600000000000006e-005 0.00
03 0 0 -1 17 155 0 755 586 567 143 150 153 0 0 +17 156 0 141 162 150 157 161 159
 0 165 +18 157 100 0 429 151 175 158 ?10 29 158 101 0 157 176 152 0.00199 -0.000
5250000000000001 0.0003000000000000001 16 159 102 0 ?156 153 163 160 0 0 10 30 1
60 103 0 159 164 154 0 +0.00199 -7.499999999999998e-005 0.0003 0 -1 -1.204669080
539449e-016 17 161 0 561 562 429 151 156 159 0 0 -17 162 0 141 142 156 148 165 1
63 0 0 +16 163 104 0 ?162 159 172 164 0 0 10 30 164 105 0 163 173 160 0 +0.00199
 -0.0005250000000000001 0.0002999999999999999 0 0 -1 17 165 0 425 426 462 157 16
2 163 0 0 -14 166 106 168 1e-008 187 137 170 49 167 +0 0 187 137 47 50 167 107 0
 166 188 138 0 +0.002 -7.499999999999998e-005 -0.001 1 0 -0 -0 0 -1 81 1 168 108
 43 166 0 0 189 139 169 83 3 169 0.6431372761726379 0.615686297416687 0.60000002
38418579 15 170 109 0 171 166 0 17 171 0 170 107 183 90 174 172 0 104 -16 172 11
0 0 ?174 163 180 173 0 0 10 30 173 111 0 172 181 164 0 +0.002 -7.499999999999998
e-005 0.0003 0 -1 -1.204669080539449e-016 17 174 0 561 429 89 175 171 172 0 183
 +18 175 112 0 426 157 178 176 ?10 29 176 113 0 175 179 158 0.002 -0.00052500000
00000001 0.0002999999999999999 17 177 0 170 183 107 178 182 180 0 186 -18 178 11
4 0 433 175 196 179 ?10 29 179 115 0 178 197 176 0.002 -0.0005250000000000001 0.
001 16 180 116 0 ?182 172 184 181 0 0 10 30 181 117 0 180 185 173 0 +0.002 -7.49
9999999999998e-005 0.001 -0 1 -0 17 182 0 475 103 433 99 177 180 0 0 +17 183 0 1
70 171 177 175 186 184 0 0 -16 184 118 0 ?186 180 193 185 0 0 10 30 185 119 0 18
4 194 181 0 +0.002 -0.0005250000000000001 -0.001 0 0 1 17 186 0 425 430 426 178
 183 184 0 0 +14 187 120 189 1e-008 208 166 191 49 188 +0 0 208 166 47 50 188 12
1 0 187 209 167 0 +-0.002 -0.0005250000000000001 -0.001 -1 0 0 0 0 1 81 1 189 12
2 43 187 0 0 210 168 190 83 3 190 0.6431372761726379 0.615686297416687 0.6000000
238418579 15 191 123 0 192 187 0 17 192 0 191 78 204 61 195 193 0 0 -16 193 124
 0 ?195 184 201 194 0 0 10 30 194 125 0 193 202 185 0 +-0.002 -7.500000000000006
e-005 -0.0008 0 -1 0 17 195 0 531 457 60 196 192 193 0 204 +18 196 126 0 454 178
 199 197 ?10 29 197 127 0 196 200 179 -0.002 -0.0005250000000000001 -0.0008 17 1
98 0 191 204 78 199 203 201 0 207 +18 199 128 0 461 196 214 200 ?10 29 200 129 0
 199 215 197 -0.002 -0.0005250000000000001 -0.001 16 201 130 0 ?198 193 205 202
 0 0 10 30 202 131 0 201 206 194 0 +-0.002 -0.0005250000000000001 -0.001 -0 -1 -
0 17 203 0 470 74 461 70 198 201 0 0 -17 204 0 191 192 198 196 207 205 0 0 +16 2
05 132 0 ?204 201 216 206 0 0 10 30 206 133 0 205 217 202 0 +-0.002 -0.000525000
0000000001 -0.001 0 0 1 17 207 0 425 458 454 199 204 205 0 0 -14 208 134 210 1e-
008 237 187 212 49 209 +0 0 237 187 47 50 209 135 0 208 238 188 0 +-0.002 -0.000
5250000000000001 -0.001 -1 0 0 0 0 1 81 1 210 136 43 208 0 0 239 189 211 83 3 21
1 0.6431372761726379 0.615686297416687 0.6000000238418579 15 212 137 0 213 208 0
 17 213 0 212 221 233 214 218 216 0 226 -18 214 138 0 213 199 219 215 ?10 29 215
 139 0 214 220 200 -0.002 -0.0005249999999999999 0.0008000000000000002 16 216 14
0 0 ?218 205 224 217 0 0 10 30 217 141 0 216 225 206 0 +-0.002 -7.49999999999998
7e-005 0.0008 -0 1 -4.818676322157798e-016 17 218 0 480 274 439 219 213 216 0 27
1 +18 219 142 0 218 214 222 220 ?10 29 220 143 0 219 223 215 -0.002 -7.499999999
999987e-005 0.0008 17 221 0 212 227 213 222 226 224 0 430 +18 222 144 0 221 219
 228 223 ?10 29 223 145 0 222 229 220 -0.002 -0.0005250000000000001 0.001 16 224
 146 0 ?221 216 230 225 0 0 10 30 225 147 0 224 231 217 0 +-0.002 -0.00052500000
00000001 -0.001 0 0 1 17 226 0 425 434 430 214 221 224 0 439 -17 227 0 212 233 2
21 228 232 230 0 278 -18 228 148 0 227 222 243 229 ?10 29 229 149 0 228 244 223
 -0.002 -7.500000000000006e-005 0.001 16 230 150 0 ?232 224 234 231 0 0 10 30 23
1 151 0 230 235 225 0 +-0.002 -0.0005250000000000001 0.001 -0 -1 -0 17 232 0 475
 433 278 222 227 230 0 0 +17 233 0 212 213 227 219 236 234 0 0 -16 234 152 0 ?23
6 230 245 235 0 0 10 30 235 153 0 234 246 231 0 +-0.002 -7.500000000000006e-005
 -0.001 0 0 1 17 236 0 262 275 271 228 233 234 0 0 +14 237 154 239 1e-008 258 20
8 241 49 238 +0 0 258 208 47 50 238 155 0 237 259 209 0 +-0.002 -0.0005250000000
000001 -0.001 -1 0 0 0 0 1 81 1 239 156 43 237 0 0 260 210 240 83 3 240 0.643137
2761726379 0.615686297416687 0.6000000238418579 15 241 157 0 242 237 0 17 242 0
 241 248 42 243 247 245 0 253 -18 243 158 0 453 228 249 244 ?10 29 244 159 0 243
 250 229 -0.002 -0.0005250000000000001 -0.0002 16 245 160 0 ?247 234 251 246 0 0
 10 30 246 161 0 245 252 235 0 +-0.002 -7.500000000000006e-005 -0.0002 -0 1 -1.2
04669080539449e-016 17 247 0 546 38 453 34 242 245 0 0 +17 248 0 241 254 242 249
 253 251 0 0 +18 249 162 0 257 243 264 250 ?10 29 250 163 0 249 265 244 -0.002 -
0.0005250000000000001 0.0002000000000000001 16 251 164 0 ?248 245 255 252 0 0 10
 30 252 165 0 251 256 246 0 +-0.002 -0.0005250000000000001 -0.001 0 0 1 17 253 0
 425 450 446 243 248 251 0 0 -17 254 0 241 42 248 25 257 255 0 39 -16 255 166 0
 ?257 251 266 256 0 0 10 30 256 167 0 255 267 252 0 +-0.002 -7.500000000000001e-
005 0.0002 0 -1 1.204669080539449e-016 17 257 0 501 449 24 249 254 255 0 446 +14
 258 168 260 1e-008 279 237 262 49 259 +0 0 279 237 47 50 259 169 0 258 280 238
 0 +-0.002 -7.500000000000008e-005 -0.001 0 1 0 0 -0 1 81 1 260 170 43 258 0 0 2
81 239 261 83 3 261 0.6431372761726379 0.615686297416687 0.6000000238418579 15 2
62 171 0 263 258 0 17 263 0 262 271 275 264 268 266 0 486 -18 264 172 0 304 249
 269 265 ?10 29 265 173 0 264 270 250 -0.0012 -7.500000000000006e-005 0.0008 16
 266 174 0 ?268 255 272 267 0 0 10 30 267 175 0 266 273 256 0 +-0.0012 -7.500000
000000006e-005 -0.001 0 0 1 17 268 0 283 284 304 269 263 266 0 275 +18 269 176 0
 268 264 285 270 ?10 29 270 177 0 269 286 265 -0.0012 -7.500000000000006e-005 0.
001 17 271 0 262 236 263 219 274 272 0 233 +16 272 178 0 ?271 266 276 273 0 0 10
 30 273 179 0 272 277 267 0 +-0.00199 -7.499999999999987e-005 0.0008 -1 -0 -0 17
 274 0 480 481 218 264 271 272 0 0 -17 275 0 262 263 236 269 278 276 0 289 -16 2
76 180 0 ?278 272 287 277 0 0 10 30 277 181 0 276 288 273 0 +-0.002 -7.500000000
000006e-005 0.001 -1 -0 -0 17 278 0 475 232 289 228 275 276 0 236 +14 279 182 28
1 1e-008 308 258 283 49 280 +0 0 308 258 47 50 280 183 0 279 309 259 0 +-0.0012
 -7.500000000000008e-005 -0.001 -0.9848077530122087 0.1736481776669274 0 -0.1736
481776669274 -0.9848077530122087 0 81 1 281 184 43 279 0 0 310 260 282 83 3 282
 0.6431372761726379 0.615686297416687 0.6000000238418579 15 283 185 0 284 279 0
 17 284 0 283 290 268 285 289 287 0 295 -18 285 186 0 343 269 291 286 ?10 29 286
 187 0 285 292 270 -0.001094203811574923 0.0005250000000000001 0.001 16 287 188
 0 ?289 276 293 288 0 0 10 30 288 189 0 287 294 277 0 +-0.0012 -7.50000000000000
6e-005 0.001 -0.1736481776669275 -0.9848077530122087 -0 17 289 0 475 278 343 269
 284 287 0 0 +17 290 0 283 296 284 291 295 293 0 299 -18 291 190 0 350 285 314 2
92 ?10 29 292 191 0 291 315 286 -0.001094203811574923 0.0005250000000000001 -0.0
01 16 293 192 0 ?295 287 297 294 0 0 10 30 294 193 0 293 298 288 0 +-0.001094203
811574923 0.0005250000000000001 -0.001 0 0 1 17 295 0 337 338 350 285 290 293 0
 0 +17 296 0 283 68 290 64 299 297 0 0 +16 297 194 0 ?296 293 301 298 0 0 10 30
 298 195 0 297 302 294 0 +-0.0012 -7.500000000000006e-005 -0.001 -0.173648177666
9275 -0.9848077530122087 -0 17 299 0 470 353 74 291 296 297 0 0 -17 300 0 283 32
 68 28 303 301 0 27 -16 301 196 0 ?303 297 305 302 0 0 10 30 302 197 0 301 306 2
98 0 +-0.0012 -7.500000000000006e-005 -0.0008 -0 -0 -1 17 303 0 760 541 552 56 3
00 301 0 55 +17 304 0 283 268 32 264 307 305 0 263 -16 305 198 0 ?307 301 316 30
6 0 0 10 30 306 199 0 305 317 302 0 +-0.0012 -7.500000000000006e-005 0.0008 0 0
 -1 17 307 0 774 517 486 20 304 305 0 32 +14 308 200 310 1e-008 354 279 312 49 3
09 +0 0 354 279 47 50 309 201 0 308 355 280 0 +-0.001094203811574923 0.000525000
0000000001 -0.001 0 1 0 0 -0 1 81 1 310 202 43 308 0 0 356 281 311 83 3 311 0.64
31372761726379 0.615686297416687 0.6000000238418579 15 312 203 0 313 308 337 17
 313 0 312 321 333 314 318 316 0 326 -18 314 204 0 313 291 319 315 ?10 29 315 20
5 0 314 320 292 0.0005 0.0005250000000000001 0.0005 16 316 206 0 ?318 305 324 31
7 0 0 10 30 317 207 0 316 325 306 0 +0.0004999999999999999 0.0005250000000000001
 -0.0005 -1.084202172485504e-016 -0 -1 17 318 0 591 592 604 319 313 316 0 597 +1
8 319 208 0 318 314 322 320 ?10 29 320 209 0 319 323 315 0.0005 0.00052500000000
00001 -0.0005 17 321 0 312 327 313 322 326 324 0 332 -18 322 210 0 321 319 328 3
23 ?10 29 323 211 0 322 329 320 -0.0005 0.0005250000000000001 0.0005 16 324 212
 0 ?326 316 330 325 0 0 10 30 325 213 0 324 331 317 0 +-0.0005 0.000525000000000
0001 0.0005 1 0 0 17 326 0 612 607 619 314 321 324 0 604 +17 327 0 312 333 321 3
28 332 330 0 336 -18 328 214 0 327 322 339 329 ?10 29 329 215 0 328 340 323 -0.0
005000000000000001 0.0005250000000000001 -0.0005 16 330 216 0 ?332 324 334 331 0
 0 10 30 331 217 0 330 335 325 0 +-0.0005000000000000001 0.0005250000000000001 -
0.0005 2.168404344971009e-016 0 1 17 332 0 627 622 634 322 327 330 0 619 +17 333
 0 312 313 327 319 336 334 0 0 -16 334 218 0 ?336 330 341 335 0 0 10 30 335 219
 0 334 342 331 0 +-0.0005000000000000001 0.0005250000000000001 -0.0005 -1 -0 -0
 17 336 0 642 637 597 328 333 334 0 634 +15 337 220 0 338 308 0 17 338 0 337 344
 295 339 343 341 0 349 -18 339 221 0 338 328 345 340 ?10 29 340 222 0 339 346 32
9 0.001094203811574923 0.0005250000000000001 0.001 16 341 223 0 ?343 334 347 342
 0 0 10 30 342 224 0 341 348 335 0 +-0.001094203811574923 0.0005250000000000001
 0.001 -1 -0 -0 17 343 0 475 289 362 285 338 341 0 284 +17 344 0 337 350 338 345
 349 347 0 353 -18 345 225 0 344 339 364 346 ?10 29 346 226 0 345 365 340 0.0010
94203811574923 0.0005250000000000001 -0.001 16 347 227 0 ?349 341 351 348 0 0 10
 30 348 228 0 347 352 342 0 +0.001094203811574923 0.0005250000000000001 -0.001 0
 0 1 17 349 0 358 359 375 339 344 347 0 362 +17 350 0 337 295 344 291 353 351 0
 290 +16 351 229 0 ?350 347 360 352 0 0 10 30 352 230 0 351 361 348 0 +-0.001094
203811574923 0.0005250000000000001 -0.001 -1 -0 -0 17 353 0 470 378 299 345 350
 351 0 375 -14 354 231 356 1e-008 379 308 358 49 355 +0 0 379 308 47 50 355 232
 0 354 380 309 0 +0.001094203811574923 0.0005250000000000001 -0.001 0.9848077530
122087 0.1736481776669272 -0 -0.1736481776669272 0.9848077530122087 0 81 1 356 2
33 43 354 0 0 381 310 357 83 3 357 0.6431372761726379 0.615686297416687 0.600000
0238418579 15 358 234 0 359 354 0 17 359 0 358 97 349 93 362 360 0 103 -16 360 2
35 0 ?362 351 366 361 0 0 10 30 361 236 0 360 367 352 0 +0.001094203811574923 0.
0005250000000000001 0.001 -0.1736481776669272 0.9848077530122087 -0 17 362 0 475
 343 103 339 359 360 0 0 +17 363 0 358 369 97 364 368 366 0 374 -18 364 237 0 38
9 345 370 365 ?10 29 365 238 0 364 371 346 0.0012 -7.500000000000006e-005 -0.000
2999999999999999 16 366 239 0 ?368 360 372 367 0 0 10 30 367 240 0 366 373 361 0
 +0.0012 -7.500000000000006e-005 0.0003 -0 -0 1 17 368 0 746 571 582 85 363 366
 0 0 +17 369 0 358 375 363 370 374 372 0 378 -18 370 241 0 396 364 385 371 ?10 2
9 371 242 0 370 386 365 0.0012 -7.499999999999998e-005 -0.001 16 372 243 0 ?374
 366 376 373 0 0 10 30 373 244 0 372 377 367 0 +0.0012 -7.499999999999998e-005 -
0.001 0 0 1 17 374 0 383 384 396 364 369 372 0 0 +17 375 0 358 349 369 345 378 3
76 0 0 +16 376 245 0 ?375 372 387 377 0 0 10 30 377 246 0 376 388 373 0 +0.00109
4203811574923 0.0005250000000000001 -0.001 -0.1736481776669272 0.984807753012208
7 -0 17 378 0 470 399 353 370 375 376 0 0 -14 379 247 381 1e-008 400 354 383 49
 380 +0 0 400 354 47 50 380 248 0 379 401 355 0 +0.0012 -7.499999999999998e-005
 -0.001 0 1 0 0 -0 1 81 1 381 249 43 379 0 0 402 356 382 83 3 382 0.643137276172
6379 0.615686297416687 0.6000000238418579 15 383 250 0 374 379 0 17 384 0 383 39
0 374 385 389 387 0 395 +18 385 251 0 384 370 391 386 ?10 29 386 252 0 385 392 3
71 0.002 -7.499999999999998e-005 -0.0003 16 387 253 0 ?384 376 393 388 0 0 10 30
 388 254 0 387 394 377 0 +0.00199 -7.499999999999998e-005 -0.0003 1 -0 -0 17 389
 0 576 577 410 364 384 387 0 582 -17 390 0 383 396 384 391 395 393 0 399 -18 391
 255 0 390 385 406 392 ?10 29 392 256 0 391 407 386 0.002 -7.499999999999998e-00
5 -0.001 16 393 257 0 ?395 387 397 394 0 0 10 30 394 258 0 393 398 388 0 +0.002
 -7.499999999999998e-005 -0.001 0 0 1 17 395 0 404 405 417 385 390 393 0 410 +17
 396 0 383 374 390 370 399 397 0 369 +16 397 259 0 ?396 393 408 398 0 0 10 30 39
8 260 0 397 409 394 0 +0.0012 -7.499999999999998e-005 -0.001 -1 -0 -0 17 399 0 4
70 420 378 391 396 397 0 417 -14 400 261 402 1e-008 421 379 404 49 401 +0 0 421
 379 47 50 401 262 0 400 422 380 0 +0.002 -7.499999999999998e-005 -0.001 1 0 -0
 -0 0 -1 81 1 402 263 43 400 0 0 423 381 403 83 3 403 0.6431372761726379 0.61568
6297416687 0.6000000238418579 15 404 264 0 405 400 0 17 405 0 404 411 395 406 41
0 408 0 416 -18 406 265 0 465 391 412 407 ?10 29 407 266 0 406 413 392 0.002 -0.
0005250000000000001 -0.0003 16 408 267 0 ?410 397 414 409 0 0 10 30 409 268 0 40
8 415 398 0 +0.002 -7.499999999999998e-005 -0.0003 -0 1 1.204669080539449e-016 1
7 410 0 576 389 465 385 405 408 0 0 +17 411 0 404 417 405 412 416 414 0 420 -18
 412 269 0 458 406 435 413 ?10 29 413 270 0 412 436 407 0.002 -0.000525000000000
0001 -0.001 16 414 271 0 ?416 408 418 415 0 0 10 30 415 272 0 414 419 409 0 +0.0
02 -0.0005250000000000001 -0.001 0 0 1 17 416 0 425 462 458 406 411 414 0 0 +17
 417 0 404 395 411 391 420 418 0 0 +16 418 273 0 ?417 414 427 419 0 0 10 30 419
 274 0 418 428 415 0 +0.002 -7.499999999999998e-005 -0.001 -0 1 -0 17 420 0 470
 461 399 412 417 418 0 0 -14 421 275 423 1e-008 466 400 425 49 422 +0 0 466 400
 47 50 422 276 0 421 467 401 0 +0.002 -0.0005250000000000001 -0.001 0 -1 0 0 -0
 -1 81 1 423 277 43 421 0 0 468 402 424 83 3 424 0.6431372761726379 0.6156862974
16687 0.6000000238418579 15 425 278 0 426 421 0 17 426 0 425 186 165 175 429 427
 0 174 +16 427 279 0 ?426 418 431 428 0 0 10 30 428 280 0 427 432 419 0 +0.00199
 -0.0005250000000000001 0.0002999999999999999 1 -0 -0 17 429 0 561 161 174 157 4
26 427 0 156 -17 430 0 425 226 186 222 433 431 0 232 -16 431 281 0 ?433 427 437
 432 0 0 10 30 432 282 0 431 438 428 0 +0.002 -0.0005250000000000001 0.001 1 -0
 -0 17 433 0 475 182 232 178 430 431 0 177 +17 434 0 425 440 226 435 439 437 0 4
45 -18 435 283 0 434 412 441 436 ?10 29 436 284 0 435 442 413 -0.00199 -0.000524
9999999999999 0.0008000000000000002 16 437 285 0 ?439 431 443 438 0 0 10 30 438
 286 0 437 444 432 0 +-0.00199 -0.0005249999999999999 0.0008000000000000002 -1 -
0 -0 17 439 0 480 218 493 214 434 437 0 0 +17 440 0 425 446 434 441 445 443 0 50
7 -18 441 287 0 440 435 482 442 ?10 29 442 288 0 441 483 436 -0.00199 -0.0005250
000000000001 0.0001999999999999999 16 443 289 0 ?445 437 447 444 0 0 10 30 444 2
90 0 443 448 438 0 +-0.00199 -0.0005249999999999999 0.0008000000000000002 -0 3.6
14007241618348e-016 1 17 445 0 522 496 507 435 440 443 0 493 +17 446 0 425 253 4
40 249 449 447 0 248 +16 447 291 0 ?446 443 451 448 0 0 10 30 448 292 0 447 452
 444 0 +-0.00199 -0.0005250000000000001 0.0002000000000000001 -1 -0 -0 17 449 0
 501 502 257 441 446 447 0 0 -17 450 0 425 136 253 119 453 451 0 118 -16 451 293
 0 ?453 447 455 452 0 0 10 30 452 294 0 451 456 448 0 +-0.00199 -0.0005250000000
000001 -0.0002 -1 -0 -0 17 453 0 546 247 118 243 450 451 0 242 +17 454 0 425 207
 136 196 457 455 0 195 +16 455 295 0 ?454 451 459 456 0 0 10 30 456 296 0 455 46
0 452 0 +-0.00199 -0.0005250000000000001 -0.0008 -1 -0 -0 17 457 0 531 132 195 1
28 454 455 0 0 -17 458 0 425 416 207 412 461 459 0 411 +16 459 297 0 ?458 455 46
3 460 0 0 10 30 460 298 0 459 464 456 0 +0.002 -0.0005250000000000001 -0.001 1 -
0 -0 17 461 0 470 203 420 199 458 459 0 198 -17 462 0 425 165 416 148 465 463 0
 147 -16 463 299 0 ?465 459 484 464 0 0 10 30 464 300 0 463 485 460 0 +0.00199 -
0.0005250000000000001 -0.0003 1 -0 -0 17 465 0 576 410 147 406 462 463 0 405 +14
 466 301 468 1e-008 471 421 470 49 467 +0 0 471 421 47 50 467 302 0 466 472 422
 0 +0 0 -0.001 0 0 -1 -1 0 -0 81 1 468 303 43 466 0 0 473 423 469 83 3 469 0.643
1372761726379 0.615686297416687 0.6000000238418579 15 470 304 0 203 466 0 14 471
 305 473 1e-008 476 466 475 49 472 -0 0 476 466 47 50 472 306 0 471 477 467 0 +0
 0 0.001 0 0 -1 -1 0 -0 81 1 473 307 43 471 0 0 478 468 474 83 3 474 0.643137276
1726379 0.615686297416687 0.6000000238418579 15 475 308 0 232 471 0 14 476 309 4
78 1e-008 497 471 480 49 477 -0 0 497 471 47 50 477 310 0 476 498 472 0 +-0.0019
9 -7.499999999999987e-005 0.0008 -0 4.818676322157798e-016 1 0 -1 4.818676322157
798e-016 81 1 478 311 43 476 0 0 499 473 479 83 3 479 0.6470588445663452 0.51764
70875740051 0 15 480 312 0 218 476 0 17 481 0 480 487 274 482 486 484 0 492 -18
 482 313 0 481 441 488 483 ?10 29 483 314 0 482 489 442 -0.0012 -7.6000000000000
06e-005 0.0008 16 484 315 0 ?486 463 490 485 0 0 10 30 485 316 0 484 491 464 0 +
-0.0012 -7.600000000000006e-005 0.0008 -0 1 -0 17 486 0 774 307 775 264 481 484
 0 274 +17 487 0 480 493 481 488 492 490 0 496 -18 488 317 0 487 482 503 489 ?10
 29 489 318 0 488 504 483 -0.00199 -7.600000000000006e-005 0.0008 16 490 319 0 ?
492 484 494 491 0 0 10 30 491 320 0 490 495 485 0 +-0.00199 -7.600000000000006e-
005 0.0008 1 0 0 17 492 0 783 778 526 482 487 490 0 775 +17 493 0 480 439 487 43
5 496 494 0 0 -16 494 321 0 ?496 490 505 495 0 0 10 30 495 322 0 494 506 491 0 +
-0.00199 -7.499999999999987e-005 0.0008 -0 1 -4.818676322157798e-016 17 496 0 52
2 523 445 488 493 494 0 526 +14 497 323 499 1e-008 518 476 501 49 498 -0 0 518 4
76 47 50 498 324 0 497 519 477 0 +-0.00199 -7.500000000000001e-005 0.0002 0 -1.2
04669080539449e-016 -1 0 1 -1.204669080539449e-016 81 1 499 325 43 497 0 0 520 4
78 500 83 3 500 0.6470588445663452 0.5176470875740051 0 15 501 326 0 257 497 0 1
7 502 0 501 508 449 503 507 505 0 513 -18 503 327 0 502 488 509 504 ?10 29 504 3
28 0 503 510 489 -0.00199 -7.600000000000006e-005 0.0002 16 505 329 0 ?507 494 5
11 506 0 0 10 30 506 330 0 505 512 495 0 +-0.00199 -7.500000000000001e-005 0.000
2 0 -1 1.204669080539449e-016 17 507 0 522 445 523 441 502 505 0 449 +17 508 0 5
01 514 502 509 513 511 0 517 -18 509 331 0 508 503 533 510 ?10 29 510 332 0 509
 534 504 -0.0012 -7.600000000000006e-005 0.0002000000000000001 16 511 333 0 ?513
 505 515 512 0 0 10 30 512 334 0 511 516 506 0 +-0.00199 -7.600000000000006e-005
 0.0002 -1 -0 -6.862039066363953e-017 17 513 0 783 526 778 503 508 511 0 523 +17
 514 0 501 24 508 20 517 515 0 0 +16 515 335 0 ?514 511 524 516 0 0 10 30 516 33
6 0 515 525 512 0 +-0.0012 -7.600000000000006e-005 0.0002000000000000001 -0 1 -0
 17 517 0 774 775 307 509 514 515 0 778 -14 518 337 520 1e-008 527 497 522 49 51
9 -0 0 527 497 47 50 519 338 0 518 528 498 0 +-0.00199 0 0 1 0 0 0 0 -1 81 1 520
 339 43 518 0 0 529 499 521 83 3 521 0.6470588445663452 0.5176470875740051 0 15
 522 340 0 496 518 0 17 523 0 522 507 496 503 526 524 0 0 -16 524 341 0 ?526 515
 535 525 0 0 10 30 525 342 0 524 536 516 0 +-0.00199 -7.600000000000006e-005 0.0
008 -0 -0 1 17 526 0 783 492 513 488 523 524 0 0 +14 527 343 529 1e-008 542 518
 531 49 528 -0 0 542 518 47 50 528 344 0 527 543 519 0 +-0.00199 -7.500000000000
008e-005 -0.0008 0 0 -1 -1 0 -0 81 1 529 345 43 527 0 0 544 520 530 83 3 530 0.6
470588445663452 0.5176470875740051 0 15 531 346 0 195 527 0 17 532 0 531 538 132
 533 537 535 0 541 -18 533 347 0 532 509 548 534 ?10 29 534 348 0 533 549 510 -0
.0012 -7.600000000000006e-005 -0.0008 16 535 349 0 ?537 524 539 536 0 0 10 30 53
6 350 0 535 540 525 0 +-0.00199 -7.600000000000006e-005 -0.0008 -1 -0 -0 17 537
 0 769 126 764 122 532 535 0 0 +17 538 0 531 60 532 56 541 539 0 0 +16 539 351 0
 ?538 535 550 540 0 0 10 30 540 352 0 539 551 536 0 +-0.0012 -7.600000000000006e
-005 -0.0008 -0 1 -0 17 541 0 760 761 303 533 538 539 0 764 -14 542 353 544 1e-0
08 557 527 546 49 543 -0 0 557 527 47 50 543 354 0 542 558 528 0 +-0.00199 -7.50
0000000000008e-005 -0.0002 -0 1.20466908053945e-016 1 0 -1 1.20466908053945e-016
 81 1 544 355 43 542 0 0 559 529 545 83 3 545 0.6470588445663452 0.5176470875740
051 0 15 546 356 0 247 542 0 17 547 0 546 553 38 548 552 550 0 556 -18 548 357 0
 761 533 563 549 ?10 29 549 358 0 548 564 534 -0.0012 -7.600000000000006e-005 -0
.0002000000000000001 16 550 359 0 ?552 539 554 551 0 0 10 30 551 360 0 550 555 5
40 0 +-0.0012 -7.600000000000006e-005 -0.0002000000000000001 -0 1 -0 17 552 0 76
0 303 761 28 547 550 0 0 +17 553 0 546 118 547 114 556 554 0 0 -16 554 361 0 ?55
6 550 565 555 0 0 10 30 555 362 0 554 566 551 0 +-0.00199 -7.600000000000006e-00
5 -0.0002 1 0 -6.862039066363953e-017 17 556 0 769 764 126 548 553 554 0 0 +14 5
57 363 559 1e-008 572 542 561 49 558 -0 0 572 542 47 50 558 364 0 557 573 543 0
 +0.00199 -7.499999999999998e-005 0.0003 0 -1.204669080539449e-016 1 0 -1 -1.204
669080539449e-016 81 1 559 365 43 557 0 0 574 544 560 83 3 560 0.647058844566345
2 0.5176470875740051 0 15 561 366 0 174 557 0 17 562 0 561 568 161 563 567 565 0
 571 -18 563 367 0 562 548 578 564 ?10 29 564 368 0 563 579 549 0.0012 -7.600000
000000006e-005 0.0003 16 565 369 0 ?567 554 569 566 0 0 10 30 566 370 0 565 570
 555 0 +0.00199 -7.600000000000006e-005 0.0003 1 -0 -0 17 567 0 755 155 750 151
 562 565 0 150 +17 568 0 561 89 562 85 571 569 0 97 +16 569 371 0 ?568 565 580 5
70 0 0 10 30 570 372 0 569 581 566 0 +0.0012 -7.600000000000006e-005 0.0003 -0 1
 -0 17 571 0 746 747 368 563 568 569 0 750 -14 572 373 574 1e-008 587 557 576 49
 573 -0 0 587 557 47 50 573 374 0 572 588 558 0 +0.00199 -7.499999999999998e-005
 -0.0003 0 1.204669080539449e-016 -1 0 1 1.204669080539449e-016 81 1 574 375 43
 572 0 0 589 559 575 83 3 575 0.6470588445663452 0.5176470875740051 0 15 576 376
 0 410 572 0 17 577 0 576 583 389 578 582 580 0 586 -18 578 377 0 577 563 593 57
9 ?10 29 579 378 0 578 594 564 0.0012 -7.600000000000006e-005 -0.000299999999999
9999 16 580 379 0 ?582 569 584 581 0 0 10 30 581 380 0 580 585 570 0 +0.0012 -7.
600000000000006e-005 -0.0002999999999999999 -0 1 -0 17 582 0 746 368 747 364 577
 580 0 363 +17 583 0 576 147 577 143 586 584 0 142 -16 584 381 0 ?586 580 595 58
5 0 0 10 30 585 382 0 584 596 581 0 +0.00199 -7.600000000000006e-005 -0.0003 -1
 0 6.862039066363949e-017 17 586 0 755 750 155 578 583 584 0 747 +14 587 383 589
 1e-008 608 572 591 49 588 -0 0 608 572 47 50 588 384 0 587 609 573 0 +0.0004999
999999999999 0.0004250000000000001 -0.0005 1 0 -1.084202172485504e-016 -1.084202
172485504e-016 0 -1 81 1 589 385 43 587 0 0 610 574 590 83 3 590 0.6470588445663
452 0.5176470875740051 0 15 591 386 0 318 587 0 17 592 0 591 598 318 593 597 595
 0 603 -18 593 387 0 592 578 599 594 ?10 29 594 388 0 593 600 579 0.000499999999
9999999 0.0004250000000000001 -0.0005 16 595 389 0 ?597 584 601 596 0 0 10 30 59
6 390 0 595 602 585 0 +0.0004999999999999999 0.0004250000000000001 -0.0005 -0 1
 -0 17 597 0 642 336 643 319 592 595 0 333 +17 598 0 591 604 592 599 603 601 0 6
07 -18 599 391 0 598 593 614 600 ?10 29 600 392 0 599 615 594 0.0005 0.000425000
0000000001 0.0005 16 601 393 0 ?603 595 605 602 0 0 10 30 602 394 0 601 606 596
 0 +0.0004999999999999999 0.0004250000000000001 -0.0005 -1.084202172485504e-016
 -0 -1 17 603 0 676 646 618 593 598 601 0 643 +17 604 0 591 318 598 314 607 605
 0 0 +16 605 395 0 ?604 601 616 606 0 0 10 30 606 396 0 605 617 602 0 +0.0005 0.
0004250000000000001 0.0005 -0 1 -0 17 607 0 612 613 326 599 604 605 0 618 -14 60
8 397 610 1e-008 623 587 612 49 609 -0 0 623 587 47 50 609 398 0 608 624 588 0 +
-0.0005 0.0004250000000000001 0.0005 -0 0 1 1 0 0 81 1 610 399 43 608 0 0 625 58
9 611 83 3 611 0.6470588445663452 0.5176470875740051 0 15 612 400 0 326 608 0 17
 613 0 612 619 607 614 618 616 0 622 -18 614 401 0 613 599 629 615 ?10 29 615 40
2 0 614 630 600 -0.0005 0.0004250000000000001 0.0005 16 616 403 0 ?618 605 620 6
17 0 0 10 30 617 404 0 616 621 606 0 +-0.0005 0.0004250000000000001 0.0005 1 0 0
 17 618 0 676 603 633 599 613 616 0 0 +17 619 0 612 326 613 322 622 620 0 0 +16
 620 405 0 ?619 616 631 621 0 0 10 30 621 406 0 620 632 617 0 +-0.0005 0.0004250
000000000001 0.0005 -0 1 -0 17 622 0 627 628 332 614 619 620 0 633 -14 623 407 6
25 1e-008 638 608 627 49 624 -0 0 638 608 47 50 624 408 0 623 639 609 0 +-0.0005
000000000000001 0.0004250000000000001 -0.0005 -1 0 2.168404344971009e-016 2.1684
04344971009e-016 0 1 81 1 625 409 43 623 0 0 640 610 626 83 3 626 0.647058844566
3452 0.5176470875740051 0 15 627 410 0 332 623 0 17 628 0 627 634 622 629 633 63
1 0 637 -18 629 411 0 628 614 653 630 ?10 29 630 412 0 629 654 615 -0.0005000000
000000001 0.0004250000000000001 -0.0005 16 631 413 0 ?633 620 635 632 0 0 10 30
 632 414 0 631 636 621 0 +-0.0005000000000000001 0.0004250000000000001 -0.0005 2
.168404344971009e-016 0 1 17 633 0 676 618 646 614 628 631 0 0 +17 634 0 627 332
 628 328 637 635 0 0 +16 635 415 0 ?634 631 644 636 0 0 10 30 636 416 0 635 645
 632 0 +-0.0005000000000000001 0.0004250000000000001 -0.0005 -0 1 -0 17 637 0 64
2 643 336 629 634 635 0 646 -14 638 417 640 1e-008 647 623 642 49 639 -0 0 647 6
23 47 50 639 418 0 638 648 624 0 +-0.0005000000000000001 0.0004250000000000001 -
0.0005 0 0 -1 -1 0 -0 81 1 640 419 43 638 0 0 649 625 641 83 3 641 0.64705884456
63452 0.5176470875740051 0 15 642 420 0 336 638 0 17 643 0 642 597 637 593 646 6
44 0 0 -16 644 421 0 ?646 635 655 645 0 0 10 30 645 422 0 644 656 636 0 +-0.0005
000000000000001 0.0004250000000000001 -0.0005 -1 -0 -0 17 646 0 676 633 603 629
 643 644 0 0 +14 647 423 649 1e-008 677 638 651 49 648 +0 0 677 638 47 50 648 42
4 0 647 678 639 0 +0 0.0004250000000000001 0 0 1 0 0 -0 1 81 1 649 425 43 647 0
 0 679 640 650 83 3 650 0.6470588445663452 0.5176470875740051 0 15 651 426 0 652
 647 676 17 652 0 651 660 672 653 657 655 0 0 -18 653 427 0 665 629 658 654 ?10
 29 654 428 0 653 659 630 -0.0004 0.0004250000000000001 0.0004000000000000001 16
 655 429 0 ?657 644 663 656 0 0 10 30 656 430 0 655 664 645 0 +-0.0004 0.0004250
000000000001 0.0004000000000000001 1 0 0 17 657 0 702 693 709 658 652 655 0 0 +1
8 658 431 0 672 653 661 659 ?10 29 659 432 0 658 662 654 0.0004000000000000001 0
.0004250000000000001 0.0004000000000000001 17 660 0 651 666 652 661 665 663 0 67
1 -18 661 433 0 660 658 667 662 ?10 29 662 434 0 661 668 659 -0.0004000000000000
001 0.0004250000000000001 -0.0003999999999999999 16 663 435 0 ?665 655 669 664 0
 0 10 30 664 436 0 663 670 656 0 +-0.0004000000000000001 0.0004250000000000001 -
0.0003999999999999999 1.35525271560688e-016 0 1 17 665 0 717 712 724 653 660 663
 0 709 +17 666 0 651 672 660 667 671 669 0 675 -18 667 437 0 666 661 683 668 ?10
 29 668 438 0 667 684 662 0.0004 0.0004250000000000001 -0.0003999999999999999 16
 669 439 0 ?671 663 673 670 0 0 10 30 670 440 0 669 674 664 0 +-0.00040000000000
00001 0.0004250000000000001 -0.0003999999999999999 -1 -0 -0 17 671 0 732 727 697
 661 666 669 0 724 +17 672 0 651 652 666 658 675 673 0 690 -16 673 441 0 ?675 66
9 685 674 0 0 10 30 674 442 0 673 686 670 0 +0.0004 0.0004250000000000001 -0.000
3999999999999999 -1.35525271560688e-016 -0 -1 17 675 0 681 694 690 667 672 673 0
 697 +15 676 443 0 603 647 0 14 677 444 679 1e-008 698 647 681 49 678 +0 0 698 6
47 47 50 678 445 0 677 699 648 0 +0.0004 0.0004250000000000001 -0.00039999999999
99999 1 0 -1.35525271560688e-016 -1.35525271560688e-016 0 -1 81 1 679 446 43 677
 0 0 700 649 680 83 3 680 0.6470588445663452 0.5176470875740051 0 15 681 447 0 6
82 677 0 17 682 0 681 690 694 683 687 685 0 693 -18 683 448 0 682 667 688 684 ?1
0 29 684 449 0 683 689 668 0.0004000000000000001 0.0005250000000000001 0.0004000
000000000001 16 685 450 0 ?687 673 691 686 0 0 10 30 686 451 0 685 692 674 0 +0.
0004 0.0005250000000000001 -0.0003999999999999999 -1.35525271560688e-016 -0 -1 1
7 687 0 741 736 708 688 682 685 0 694 +18 688 452 0 687 683 704 689 ?10 29 689 4
53 0 688 705 684 0.0004 0.0005250000000000001 -0.0003999999999999999 17 690 0 68
1 675 682 658 693 691 0 657 -16 691 454 0 ?693 685 695 692 0 0 10 30 692 455 0 6
91 696 686 0 +0.0004000000000000001 0.0004250000000000001 0.0004000000000000001
 -0 1 -0 17 693 0 702 703 657 683 690 691 0 708 +17 694 0 681 682 675 688 697 69
5 0 733 +16 695 456 0 ?694 691 706 696 0 0 10 30 696 457 0 695 707 692 0 +0.0004
 0.0004250000000000001 -0.0003999999999999999 -0 1 -0 17 697 0 732 671 733 667 6
94 695 0 0 -14 698 458 700 1e-008 713 677 702 49 699 +0 0 713 677 47 50 699 459
 0 698 714 678 0 +-0.0004 0.0004250000000000001 0.0004000000000000001 -0 0 1 1 0
 0 81 1 700 460 43 698 0 0 715 679 701 83 3 701 0.6470588445663452 0.51764708757
40051 0 15 702 461 0 703 698 0 17 703 0 702 709 693 704 708 706 0 712 -18 704 46
2 0 703 688 719 705 ?10 29 705 463 0 704 720 689 -0.0004 0.0005250000000000001 0
.0004000000000000001 16 706 464 0 ?708 695 710 707 0 0 10 30 707 465 0 706 711 6
96 0 +-0.0004 0.0005250000000000001 0.0004000000000000001 1 0 0 17 708 0 741 687
 723 683 703 706 0 0 +17 709 0 702 657 703 653 712 710 0 652 -16 710 466 0 ?712
 706 721 711 0 0 10 30 711 467 0 710 722 707 0 +-0.0004 0.0004250000000000001 0.
0004000000000000001 -0 1 -0 17 712 0 717 718 665 704 709 710 0 723 +14 713 468 7
15 1e-008 728 698 717 49 714 +0 0 728 698 47 50 714 469 0 713 729 699 0 +-0.0004
000000000000001 0.0004250000000000001 -0.0003999999999999999 -1 0 1.355252715606
88e-016 1.35525271560688e-016 0 1 81 1 715 470 43 713 0 0 730 700 716 83 3 716 0
.6470588445663452 0.5176470875740051 0 15 717 471 0 718 713 0 17 718 0 717 724 7
12 719 723 721 0 736 -18 719 472 0 718 704 0 720 ?10 29 720 473 0 719 0 705 -0.0
004000000000000001 0.0005250000000000001 -0.0004 16 721 474 0 ?723 710 725 722 0
 0 10 30 722 475 0 721 726 711 0 +-0.0004000000000000001 0.0005250000000000001 -
0.0003999999999999999 1.35525271560688e-016 0 1 17 723 0 741 708 736 704 718 721
 0 0 +17 724 0 717 665 718 661 727 725 0 0 -16 725 476 0 ?727 721 734 726 0 0 10
 30 726 477 0 725 735 722 0 +-0.0004000000000000001 0.0004250000000000001 -0.000
3999999999999999 -0 1 -0 17 727 0 732 733 671 719 724 725 0 0 +14 728 478 730 1e
-008 737 713 732 49 729 +0 0 737 713 47 50 729 479 0 728 738 714 0 +-0.000400000
0000000001 0.0004250000000000001 -0.0003999999999999999 0 0 -1 -1 0 -0 81 1 730
 480 43 728 0 0 739 715 731 83 3 731 0.6470588445663452 0.5176470875740051 0 15
 732 481 0 733 728 0 17 733 0 732 697 727 688 736 734 0 0 -16 734 482 0 ?736 725
 748 735 0 0 10 30 735 483 0 734 749 726 0 +-0.0004000000000000001 0.00052500000
00000001 -0.0003999999999999999 -1 -0 -0 17 736 0 741 723 687 719 733 734 0 727
 +14 737 484 739 1e-008 742 728 741 49 738 +0 0 742 728 47 50 738 485 0 737 743
 729 0 +-0.001094203811574923 0.0005250000000000001 -0.001 0 1 0 0 -0 1 81 1 739
 486 43 737 0 0 744 730 740 83 3 740 0.6431372761726379 0.615686297416687 0.6000
000238418579 15 741 487 0 708 737 0 14 742 488 744 1e-008 751 737 746 49 743 -0
 0 751 737 47 50 743 489 0 742 752 738 0 +0.0012 -7.600000000000006e-005 0.0003
 -1 0 -0 0 0 1 81 1 744 490 43 742 0 0 753 739 745 83 3 745 0.6470588445663452 0
.5176470875740051 0 15 746 491 0 368 742 0 17 747 0 746 582 571 578 750 748 0 0
 -16 748 492 0 ?750 734 762 749 0 0 10 30 749 493 0 748 763 735 0 +0.0012 -7.600
000000000006e-005 0.0003 -0 -0 1 17 750 0 755 567 586 563 747 748 0 0 +14 751 49
4 753 1e-008 756 742 755 49 752 +0 0 756 742 47 50 752 495 0 751 757 743 0 +0 -7
.600000000000006e-005 0 0 1 0 0 -0 1 81 1 753 496 43 751 0 0 758 744 754 83 3 75
4 0.6470588445663452 0.5176470875740051 0 15 755 497 0 155 751 0 14 756 498 758
 1e-008 765 751 760 49 757 -0 0 765 751 47 50 757 499 0 756 766 752 0 +-0.0012 -
7.600000000000006e-005 -0.0008 1 0 -0 -0 0 -1 81 1 758 500 43 756 0 0 767 753 75
9 83 3 759 0.6470588445663452 0.5176470875740051 0 15 760 501 0 303 756 0 17 761
 0 760 552 541 548 764 762 0 547 -16 762 502 0 ?764 748 776 763 0 0 10 30 763 50
3 0 762 777 749 0 +-0.0012 -7.600000000000006e-005 -0.0008 -0 -0 -1 17 764 0 769
 537 556 533 761 762 0 0 +14 765 504 767 1e-008 770 756 769 49 766 +0 0 770 756
 47 50 766 505 0 765 771 757 0 +0 -7.600000000000006e-005 0 -0 1 0 0 0 1 81 1 76
7 506 43 765 0 0 772 758 768 83 3 768 0.6470588445663452 0.5176470875740051 0 15
 769 507 0 126 765 0 14 770 508 772 1e-008 779 765 774 49 771 -0 0 779 765 47 50
 771 509 0 770 780 766 0 +-0.0012 -7.600000000000006e-005 0.0008 1 0 0 0 0 -1 81
 1 772 510 43 770 0 0 781 767 773 83 3 773 0.6470588445663452 0.5176470875740051
 0 15 774 511 0 307 770 0 17 775 0 774 486 517 482 778 776 0 0 -16 776 512 0 ?77
8 762 0 777 0 0 10 30 777 513 0 776 0 763 0 +-0.0012 -7.600000000000006e-005 0.0
008 0 0 -1 17 778 0 783 513 492 509 775 776 0 0 +14 779 514 781 1e-008 0 770 783
 49 780 -0 0 0 770 47 50 780 515 0 779 0 771 0 +0 -7.600000000000006e-005 0 0 -1
 0 0 -0 -1 81 1 781 516 43 779 0 0 0 772 782 83 3 782 0.6470588445663452 0.51764
70875740051 0 15 783 517 0 526 779 0 1 0 
